<svg xmlns="http://www.w3.org/2000/svg" xmlns:xlink="http://www.w3.org/1999/xlink" viewBox="0 0 100 100" width="100px" height="100px"><defs><rect id="ElEZxbd11caf7Hde2Rz4wa" width="100" height="84.444" x="228" y="-488.867"/></defs><clipPath id="ElEZxbd11caf7Hde2Rz4wb"><use overflow="visible" xlink:href="#ElEZxbd11caf7Hde2Rz4wa"/></clipPath><g clip-path="url(#ElEZxbd11caf7Hde2Rz4wb)"><defs><rect id="ElEZxbd11caf7Hde2Rz4wc" width="1046.667" height="1486.667" x="-96.444" y="-1231.089"/></defs></g><path fill="#ff8405" d="M81.948,65.357c-0.678,3.559-3.559,6.27-7.118,6.779C69.237,72.983,59.917,74,49.409,74 c-10.338,0-19.659-1.017-25.42-1.864c-3.559-0.508-6.44-3.22-7.118-6.779c-0.678-3.898-1.356-9.66-1.356-16.778 s0.678-12.88,1.356-16.778c0.678-3.559,3.559-6.27,7.118-6.779c5.593-0.847,14.913-1.864,25.42-1.864s19.659,1.017,25.42,1.864 c3.559,0.508,6.44,3.22,7.118,6.779c0.678,3.898,1.525,9.66,1.525,16.778C83.303,55.697,82.626,61.459,81.948,65.357z"/><path fill="#4343bf" d="M49.937,77c-11.282,0-21.043-1.188-25.857-1.896c-4.84-0.691-8.713-4.384-9.628-9.185 c-0.647-3.721-1.408-9.703-1.408-17.34s0.761-13.618,1.399-17.291c0.924-4.851,4.798-8.542,9.649-9.234 c3.74-0.567,13.799-1.895,25.845-1.895c10.717,0,19.977,1.031,25.857,1.896c4.839,0.69,8.713,4.382,9.628,9.185 C86.104,35.164,87,41.174,87,48.579c-0.188,7.924-0.957,13.771-1.569,17.292l-0.009,0.048c-0.915,4.801-4.788,8.493-9.64,9.187 C72.041,75.673,61.982,77,49.937,77z M49.937,26.159c-11.638,0-21.34,1.28-24.972,1.83c-2.338,0.334-4.185,2.09-4.619,4.374 c-0.59,3.393-1.303,9.007-1.303,16.216s0.713,12.824,1.312,16.265c0.426,2.235,2.272,3.991,4.586,4.322 C29.604,69.852,39.036,71,49.937,71c11.638,0,21.34-1.28,24.972-1.83c2.33-0.334,4.173-2.08,4.615-4.352 c0.474-2.729,1.29-8.456,1.478-16.311c-0.001-6.87-0.847-12.535-1.482-16.192c-0.426-2.236-2.272-3.992-4.585-4.322 C69.238,27.155,60.291,26.159,49.937,26.159z"/><g><path fill="#edf7f5" d="M43.901,60.039V37.12L63.546,48.58L43.901,60.039z"/></g><g><path fill="#3abcf8" d="M49.913,80.891c-11.751,0-21.925-1.291-26.942-2.061c-5.786-0.861-10.413-5.415-11.493-11.327 c-0.174-1.042-0.393-2.097-0.63-3.245C10.068,60.473,9,55.289,9,49h10c0,5.27,0.91,9.688,1.643,13.239 c0.257,1.248,0.5,2.426,0.686,3.543c0.298,1.625,1.563,2.926,3.137,3.16c4.759,0.729,14.36,1.948,25.448,1.948 c11.837,0,21.709-1.357,25.404-1.941c1.616-0.241,2.882-1.542,3.192-3.243c0.185-1.109,0.447-2.369,0.726-3.704 c0.733-3.523,1.646-7.91,1.766-13.116l9.998,0.229c-0.141,6.121-1.157,11.004-1.975,14.927c-0.268,1.287-0.499,2.398-0.664,3.386 c-1.093,5.988-5.719,10.541-11.526,11.406C72.949,79.447,62.458,80.891,49.913,80.891z"/></g></svg>